<?xml version="1.0"?>
<svg width="499.99999999999994" height="499.99999999999994" xmlns="http://www.w3.org/2000/svg" xmlns:svg="http://www.w3.org/2000/svg" version="1.1">

 <g class="layer">
  <title>Layer 1</title>
  <g id="svg_1">
   <path d="m242.75,105.05l0,24l10.5,0l10.5,0l0,-2.95c0,-2.85 -0.17,-2.95 -5.25,-3.25l-5.25,-0.3l-0.29,-7.19l-0.3,-7.19l4.3,-0.31c4.01,-0.29 4.31,-0.51 4.6,-3.5c0.3,-3.1 0.19,-3.2 -4,-3.5l-4.31,-0.31l-0.3,-6.25l-0.3,-6.25l5.55,0l5.55,0l0,-3.5l0,-3.5l-10.5,0l-10.5,0l0,24m-24.04,-20.85l-3.54,0.95l4.27,16.7c4.78,18.68 5.2,22.66 2.5,24.1c-3.86,2.06 -4.81,0.05 -10.18,-21.7c-3.1,-12.57 -4.63,-17.17 -5.57,-16.81c-0.72,0.27 -2.91,0.8 -4.87,1.16c-1.96,0.37 -3.57,0.86 -3.57,1.08c0,0.23 2.1,8.84 4.67,19.14c4.18,16.73 5.02,19.08 7.9,21.98c2.49,2.51 4.08,3.25 6.96,3.25c9.91,0 16.45,-4.89 16.49,-12.33c0.01,-2.29 -1.89,-11.93 -4.22,-21.42c-4.57,-18.58 -4.11,-17.9 -10.84,-16.1m61.56,4.26c-2.62,2.77 -3.82,5.7 -6.46,15.68c-5.14,19.42 -4.44,24.26 4.1,28.18c2.95,1.35 5.19,3.17 5.84,4.73c0.57,1.39 2.07,3.81 3.33,5.39l2.28,2.86l1.76,-2.7c1.65,-2.52 1.66,-2.85 0.1,-5.23c-1.63,-2.49 -1.59,-2.6 1.86,-5.44c3.9,-3.21 5.2,-6.47 9.14,-22.88c1.51,-6.29 2.29,-11.76 1.93,-13.65c-1.1,-5.88 -8.3,-10.35 -16.68,-10.35c-3.24,0 -4.59,0.64 -7.2,3.41m8.19,5.02c-0.79,0.79 -2.86,7.2 -4.61,14.25c-1.75,7.05 -3.41,13.56 -3.68,14.47c-0.56,1.87 2,4.85 4.17,4.85c2.07,0 3.97,-4.8 7.4,-18.69c1.65,-6.71 3.01,-12.41 3.01,-12.68c0,-0.82 -3.09,-3.63 -4,-3.63c-0.47,0 -1.5,0.65 -2.29,1.43m29.29,13.22c-12.53,21.88 -13.98,24.83 -13.99,28.52c-0.01,4.64 3.41,8.89 9.54,11.86c5.75,2.78 10,2.09 14.13,-2.29c2.44,-2.59 20.32,-31.93 20.32,-33.34c0,-0.21 -1.87,-1.55 -4.15,-2.99c-3.32,-2.1 -4.32,-2.35 -4.97,-1.27c-0.45,0.75 -4.77,8.07 -9.6,16.27c-4.83,8.2 -9.57,15.4 -10.53,16c-2.4,1.49 -5.33,-0.5 -5,-3.4c0.14,-1.21 4.31,-9.12 9.25,-17.57c4.95,-8.45 9,-15.75 9,-16.22c0,-0.73 -7.09,-5.26 -8.14,-5.2c-0.2,0.01 -2.84,4.35 -5.86,9.63m-152.75,-1.07c-4.54,2.5 -8.25,5 -8.25,5.55c0,1 21.5,38.53 23.06,40.25c0.61,0.68 5.55,-1.56 8.8,-3.99c0.19,-0.15 -2,-4.38 -4.87,-9.41c-3.9,-6.81 -4.94,-9.43 -4.1,-10.27c0.85,-0.85 3.17,0.89 9.14,6.82l8,7.95l4.54,-2.41l4.55,-2.41l-8.42,-8.58c-8.22,-8.37 -8.41,-8.68 -7.97,-12.69c0.32,-2.89 -0.16,-5.32 -1.63,-8.18c-4.48,-8.79 -10.42,-9.47 -22.85,-2.63m5.28,4.77c-1.77,1.3 -1.71,1.6 1.38,7c1.78,3.11 3.55,5.65 3.94,5.65c2.19,0 5.15,-3.4 5.15,-5.92c0,-6.05 -6.06,-9.95 -10.47,-6.73m-35.5,19.12l-8.43,8.48l2.38,2.53l2.39,2.54l2.6,-2.49l2.6,-2.49l14.43,14.47l14.44,14.46l3.8,-3.7l3.79,-3.71l-14.01,-14.04c-7.71,-7.72 -14.02,-14.42 -14.02,-14.87c0,-0.46 1.01,-1.65 2.25,-2.65l2.25,-1.83l-2.43,-2.58c-1.33,-1.43 -2.69,-2.59 -3.02,-2.59c-0.33,0 -4.39,3.81 -9.02,8.47m209.96,10.04c-13.91,13.93 -16.31,16.76 -15.4,18.2c0.59,0.94 4.09,4.4 7.78,7.68l6.7,5.98l2.18,-2.17l2.17,-2.18l-3.93,-4.03l-3.93,-4.02l5.19,-5.2l5.2,-5.19l3.02,2.89l3.02,2.89l2.52,-2.37l2.52,-2.36l-3.01,-3.11l-3.02,-3.11l4.5,-4.41l4.49,-4.41l3.82,3.72l3.81,3.73l2.39,-2.55l2.38,-2.54l-6.92,-6.97c-3.8,-3.84 -7.39,-6.98 -7.96,-6.98c-0.57,0 -8.45,7.43 -17.52,16.51m-128.03,32.55c-4.79,6.45 -5.13,7.26 -3.97,9.42c1.8,3.37 0.55,7.37 -2.51,8.01c-1.36,0.28 -3.49,0.72 -4.73,0.98c-5.07,1.07 -18.69,22.39 -22.26,34.84c-2.42,8.44 -2.19,21.32 0.49,27.39c3.95,8.92 10.09,12.99 8.38,5.55c-0.47,-2.06 -0.86,-6.94 -0.85,-10.84c0.01,-5.9 0.44,-7.71 2.5,-10.75c2.91,-4.27 8.95,-8.83 14.17,-10.7c4.68,-1.67 10.11,-0.25 17.44,4.54c4.28,2.8 5.05,3.76 4.67,5.77c-0.27,1.41 0.19,3.07 1.12,4c1.44,1.44 0.58,2.31 -9.67,9.87c-6.18,4.56 -16.51,12.18 -22.95,16.94l-11.71,8.66l6.63,8.88l6.62,8.88l52.17,0l52.16,0l6.62,-8.87l6.62,-8.87l-15.7,-11.63c-8.64,-6.4 -18.96,-14.04 -22.94,-16.97c-6.58,-4.85 -7.09,-5.47 -5.66,-6.9c0.91,-0.92 1.38,-2.58 1.11,-3.99c-0.39,-2.01 0.39,-2.97 4.66,-5.77c11.57,-7.56 18.22,-6.95 27.79,2.55c4.79,4.75 5.78,6.35 6.38,10.35c0.68,4.56 0.4,8.44 -1.09,15.35c-1.46,6.78 4.68,2.61 8.46,-5.75c2.61,-5.75 2.85,-20.06 0.48,-28.07c-3.75,-12.62 -17.25,-33.48 -22.33,-34.49c-6.1,-1.21 -7.57,-2.02 -7.9,-4.36c-0.19,-1.31 0.21,-3.41 0.89,-4.67c1.1,-2.07 0.71,-2.98 -4.01,-9.35c-2.88,-3.88 -5.48,-7.06 -5.78,-7.06c-1.18,0 -22.26,16.27 -22.26,17.18c0,1.45 9.01,12.89 10.65,13.52c0.78,0.3 2.27,-0.22 3.3,-1.16c2.16,-1.95 5.26,-0.89 7.03,2.42c1.4,2.62 1.26,10.01 -0.26,13c-1.83,3.62 -13.91,13.14 -15.72,12.39c-2.66,-1.09 -4.89,-0.53 -8.33,2.09c-1.85,1.41 -3.73,2.56 -4.17,2.56c-0.45,0 -2.33,-1.15 -4.17,-2.56c-3.44,-2.62 -5.68,-3.18 -8.33,-2.09c-1.81,0.75 -13.87,-8.74 -15.75,-12.39c-0.7,-1.35 -1.15,-4.89 -1.01,-7.86c0.22,-4.55 0.68,-5.71 2.98,-7.42c2.63,-1.96 2.8,-1.97 4.72,-0.23c1.09,0.98 2.62,1.55 3.4,1.25c1.64,-0.63 10.66,-12.07 10.66,-13.52c0,-0.91 -21.09,-17.18 -22.27,-17.18c-0.3,0 -2.9,3.18 -5.77,7.06m15.72,98.79l-19.81,14.65l20.13,0.27c11.07,0.15 28.92,0.15 39.65,0l19.53,-0.27l-16.27,-12c-8.95,-6.6 -17.88,-13.19 -19.84,-14.65l-3.57,-2.65l-19.82,14.65m13.74,-1.51c-0.3,0.79 -0.41,3.4 -0.23,5.8l0.31,4.36l6,0l6,0l0,-5.5l0,-5.5l-5.76,-0.3c-4.3,-0.22 -5.91,0.07 -6.32,1.14m-70.14,73.1l-2.22,3.44l3.47,2.14c2.25,1.39 3.21,2.59 2.72,3.4c-0.41,0.68 -5.87,9.21 -12.12,18.96c-6.25,9.74 -11.2,17.86 -11,18.03c0.9,0.78 8.87,5.59 9.25,5.59c0.24,0 5.71,-8.32 12.16,-18.5c6.45,-10.17 12,-18.5 12.34,-18.49c0.34,0 1.99,0.84 3.67,1.86l3.05,1.86l2.27,-3.46c1.25,-1.9 2.13,-3.59 1.95,-3.74c-0.96,-0.85 -21.35,-13.79 -22.25,-14.12c-0.59,-0.22 -2.07,1.15 -3.29,3.03m134.59,4.43c-2.63,1.66 -5.06,4.18 -5.82,6.02c-2.62,6.31 0.73,15.39 6.83,18.55c1.5,0.78 6.51,2.13 11.14,3.01c9.19,1.74 14.33,5.11 13.77,9.03c-0.45,3.16 -4.52,3.16 -7.82,-0.01l-2.81,-2.69l-3.58,2.73c-1.97,1.5 -3.58,3.07 -3.58,3.49c0,1.4 7.91,7.94 10.34,8.55c3.58,0.9 10.09,-1.22 13.47,-4.37c3.53,-3.3 5.38,-9.03 4.22,-13.07c-2.15,-7.51 -7.61,-11.3 -19.55,-13.58c-8.51,-1.63 -11.98,-3.38 -12.99,-6.55c-0.71,-2.25 0.96,-4.98 3.06,-4.98c0.72,0 2.24,1.2 3.39,2.66l2.09,2.66l2.74,-2.4c1.5,-1.31 3.11,-2.68 3.57,-3.05c1.34,-1.04 -1.18,-4.8 -4.66,-6.92c-4.43,-2.7 -8.53,-2.43 -13.81,0.92m-103.84,11.83c-1.9,0.99 -4.33,3.3 -5.39,5.13c-3.02,5.24 -9.64,28.86 -9.64,34.41c0,4.28 0.45,5.42 3.3,8.26c5.19,5.19 14.82,7.04 20.74,3.98c3.77,-1.95 6.23,-6.86 10.68,-21.32c5.73,-18.63 4.8,-25.27 -4.1,-29.21c-6.62,-2.92 -11.58,-3.32 -15.59,-1.25m72.8,1.66c-2.02,0.63 -3.99,1.46 -4.37,1.85c-0.7,0.7 13.21,48.52 14.57,50.11c0.51,0.59 20.53,-4.56 22.72,-5.84c0.23,-0.14 -1.78,-6.62 -2.24,-7.24c-0.11,-0.14 -2.13,0.42 -4.48,1.25c-7.61,2.69 -6.98,3.59 -13.99,-19.99c-3.51,-11.82 -6.87,-21.45 -7.46,-21.39c-0.6,0.05 -2.73,0.62 -4.75,1.25m-33.33,4.11c-2.2,0.83 -4.14,1.51 -4.3,1.52c-0.16,0 -1.17,1.92 -2.23,4.26c-1.61,3.56 -1.93,6.59 -1.95,18.56c-0.03,16.6 1.02,21.9 5.11,25.81c2.52,2.42 3.89,2.87 9.65,3.15c8.19,0.41 12.88,-1.64 15.51,-6.77c1.56,-3.04 1.75,-5.75 1.5,-20.5c-0.32,-18.36 -1.16,-21.73 -6.23,-25.05c-3.48,-2.28 -12.25,-2.78 -17.06,-0.98m-34.5,3.72c-1.9,4.31 -9,29.13 -9,31.45c0,2.53 3.02,4.67 5.33,3.79c1.85,-0.71 2.59,-2.59 7.79,-19.82c4.52,-14.96 4.47,-16.83 -0.46,-17.42c-1.98,-0.24 -2.9,0.27 -3.66,2m39.2,4.01c-0.84,0.84 -1.2,6.33 -1.2,18.3c0,11.97 0.36,17.46 1.2,18.3c2.02,2.03 5.78,1.44 6.7,-1.05c1.05,-2.85 0.15,-32.65 -1.07,-35c-1.04,-2.02 -3.89,-2.29 -5.63,-0.55" fill="#b74c3f" fill-rule="evenodd" id="path1"/>
   <path d="m228.66,44.67c-64.71,6.55 -122.29,43.1 -155.92,98.97c-48.55,80.66 -35.99,184.35 30.41,251.06c32.14,32.29 73.75,52.95 119.01,59.09c12.24,1.66 41.8,1.65 54,-0.01c44.94,-6.11 86.56,-26.73 118.6,-58.76c46.11,-46.11 67.38,-110.99 57.82,-176.38c-7.31,-50.05 -35.88,-99.35 -75.42,-130.13c-29.75,-23.17 -62.15,-37.3 -97.31,-42.43c-12.82,-1.87 -39.38,-2.6 -51.19,-1.41m5.47,8.98c-38.44,2.94 -73.16,16.19 -104.47,39.87c-9.89,7.49 -29.22,26.97 -37.07,37.36c-26.63,35.28 -39.81,75.12 -39.63,119.76c0.13,31.46 6.6,58.92 20.37,86.5c27.87,55.81 80.73,95.57 140.97,106.02c61.87,10.73 124.25,-7.8 168.73,-50.12c34.4,-32.73 55.06,-72.9 61.14,-118.9c1.66,-12.5 1.43,-38.82 -0.43,-51.88c-5.8,-40.51 -24.34,-78.69 -52.29,-107.68c-13.05,-13.53 -20.76,-20.06 -34.7,-29.37c-27.01,-18.04 -59.35,-28.94 -93.59,-31.54c-14.52,-1.11 -14.73,-1.11 -29.03,-0.02m1.53,6.61c-58.72,4.7 -111.45,35.27 -143.66,83.29c-21.67,32.3 -32,66.26 -32.13,105.59c-0.07,19.19 1.02,28.58 5.39,46.34c12.9,52.43 48.19,97.33 95.99,122.1c29.21,15.14 54.79,21.36 87.91,21.36c25.07,0 45.42,-3.57 66.7,-11.69c95.39,-36.4 145.26,-140.83 113.21,-237.07c-22.53,-67.68 -80.66,-117.13 -150.41,-127.95c-10.27,-1.59 -34.11,-2.69 -43,-1.97m-12.5,10.91c-59.11,8.24 -110.61,46.21 -136.96,100.97c-4.25,8.83 -11.52,28.38 -10.8,29.04c1.1,1.01 73.27,19.32 73.78,18.72c0.36,-0.42 1.47,-3.01 2.47,-5.76c9.63,-26.59 31.64,-49.46 58.27,-60.55c24.02,-10 54.47,-10 78.49,0c25.48,10.61 47.38,32.77 56.86,57.54c1.69,4.4 3.4,8.35 3.8,8.77c0.57,0.61 72.76,-17.7 73.88,-18.74c0.15,-0.14 -1.49,-5.21 -3.65,-11.27c-23.16,-64.93 -80.44,-111.04 -148.11,-119.23c-11.43,-1.38 -36.37,-1.12 -48.03,0.51m14,84.39c-50.7,7.37 -87.13,53.07 -81.97,102.84c1.39,13.41 3.69,21.18 9.97,33.74l5.5,11l77.89,0.25c73.28,0.24 77.96,0.15 79.22,-1.5c0.74,-0.96 3.11,-5.13 5.27,-9.25c31.7,-60.6 -11.4,-134.57 -80.06,-137.45c-5.68,-0.23 -12.79,-0.07 -15.82,0.37m-164.36,55.86c-1.6,2.59 -3.79,24.65 -3.79,38.22c0,15.11 2.31,36.49 4.15,38.37c0.49,0.51 16.51,-3.31 37.35,-8.89l36.48,-9.78l-0.54,-5.6c-0.3,-3.08 -0.92,-6.02 -1.38,-6.52c-1.25,-1.37 -8.74,1.17 -13.45,4.55c-2.67,1.92 -5.82,3.12 -9.25,3.53l-5.21,0.61l0,-15.77l0,-15.78l4.75,0.65c2.79,0.38 7.13,2.12 10.51,4.2c3.16,1.96 7.3,3.8 9.2,4.11c3.83,0.62 3.87,0.54 4.96,-8.9l0.54,-4.72l-3.73,-0.98c-2.05,-0.54 -18.28,-4.83 -36.07,-9.53c-17.78,-4.71 -32.72,-8.55 -33.19,-8.55c-0.46,0 -1.07,0.35 -1.33,0.78m315.86,8.28c-18.15,4.86 -34,9.09 -35.22,9.4c-2.02,0.51 -2.18,1.01 -1.69,5.3c1,8.74 1.23,9.24 4.18,9.22c1.51,-0.01 4.53,-1.13 6.73,-2.48c6.79,-4.18 10.28,-5.5 14.47,-5.5l4.03,0l0,15.12l0,15.13l-4.83,-0.46c-3.24,-0.32 -6.8,-1.68 -10.77,-4.13c-4.05,-2.5 -7.12,-3.66 -9.67,-3.66c-3.64,0 -3.73,0.08 -3.74,3.75c-0.01,2.06 -0.26,4.67 -0.57,5.81c-0.52,1.93 1.71,2.66 36.09,11.88c20.92,5.6 37.01,9.44 37.5,8.93c1.82,-1.86 4.08,-23.11 4.08,-38.37c0,-13.69 -2.14,-35.66 -3.72,-38.22c-0.8,-1.3 -2.64,-0.89 -36.87,8.28m-309.94,15.02c0.31,0.5 1.55,0.93 2.75,0.94c2.05,0.03 2.01,0.14 -0.56,1.73c-2.99,1.86 -3.56,3.25 -1.33,3.25c1.66,0 1.44,3.21 -0.25,3.77c-2.52,0.84 -0.97,2.23 2.58,2.33l3.75,0.1l-3.3,0.78c-4.15,0.99 -4.53,1.39 -3.72,3.94c0.52,1.64 1.55,2.1 4.84,2.19c3.27,0.1 3.64,0.26 1.68,0.75c-3.73,0.95 -7,3.4 -7,5.27c0,1.99 1.94,2.83 6.84,2.97c3.3,0.08 3.42,0.17 1.16,0.9c-2.14,0.68 -2.21,0.82 -0.5,1c1.74,0.17 1.67,0.31 -0.5,1.08c-1.66,0.59 0.15,0.72 5.41,0.4c4.34,-0.27 9.18,-0.48 10.75,-0.48l2.84,0l0,-15.04c0,-11.15 -0.32,-15.13 -1.25,-15.42c-2.91,-0.9 -24.73,-1.32 -24.19,-0.46m327.94,-0.4c-3.3,0.17 -7.46,0.56 -9.25,0.86l-3.25,0.55l0,14.95l0,14.96l3.25,0c1.79,0 7.71,0.3 13.16,0.66c7.41,0.49 9.73,0.36 9.19,-0.5c-0.39,-0.64 -1.7,-1.2 -2.9,-1.24c-1.93,-0.07 -1.87,-0.2 0.55,-1.09c2.9,-1.06 3.81,-3.83 1.25,-3.83c-1.93,0 -1.89,-0.91 0.12,-3.13c1.5,-1.66 1.42,-1.82 -1.25,-2.41c-4.84,-1.08 -5.01,-1.3 -1.05,-1.39c3.37,-0.07 3.79,-0.34 3.5,-2.32c-0.27,-1.95 -1.07,-2.33 -5.82,-2.79l-5.5,-0.54l4.74,-0.82c2.61,-0.46 4.5,-1.23 4.2,-1.72c-0.31,-0.48 0.15,-0.88 1.01,-0.88c2.08,0 2.06,-4.6 -0.03,-5.4c-0.87,-0.33 -3.45,-0.66 -5.75,-0.74l-4.17,-0.13l3.5,-0.73c1.93,-0.41 2.83,-0.83 2,-0.94c-1.07,-0.15 -0.93,-0.45 0.5,-1.06l2,-0.86l-2,0.11c-1.1,0.07 -4.7,0.26 -8,0.43m-296.83,0.98c-1.11,1.11 -0.78,30.34 0.33,30.34c0.63,0 1,-5.84 1,-15.5c0,-8.53 -0.15,-15.5 -0.33,-15.5c-0.18,0 -0.63,0.3 -1,0.66m-3.26,15.34c0,8.52 0.15,12.01 0.34,7.75c0.19,-4.27 0.19,-11.24 0,-15.5c-0.19,-4.27 -0.34,-0.78 -0.34,7.75m280.59,0c0,9.33 0.38,15 1,15c0.63,0 1,-5.67 1,-15c0,-9.34 -0.37,-15 -1,-15c-0.62,0 -1,5.66 -1,15m4.41,0c0,8.52 0.15,12.01 0.34,7.75c0.19,-4.27 0.19,-11.24 0,-15.5c-0.19,-4.27 -0.34,-0.78 -0.34,7.75m-280.41,37.7c-19.52,5.23 -35.62,9.61 -35.76,9.75c-0.77,0.71 7.65,22.44 12.31,31.79c26.33,52.89 76.36,89.37 134.81,98.3c15.48,2.37 46.86,1.64 61.94,-1.43c55.63,-11.34 102.53,-48 127.3,-99.5c4.69,-9.76 11.86,-28.53 11.15,-29.18c-1.09,-0.99 -73.26,-19.29 -73.76,-18.7c-0.36,0.42 -1.46,3.02 -2.45,5.77c-11.63,32.36 -40.6,57.8 -74.86,65.74c-12.81,2.97 -32.54,2.97 -45.35,0c-34.41,-7.97 -62.39,-32.54 -74.85,-65.72c-1.24,-3.31 -2.87,-6.09 -3.62,-6.17c-0.74,-0.08 -17.33,4.13 -36.86,9.35m102.25,25.62c-1.25,0.69 -2.94,2.23 -3.78,3.42c-1.39,1.99 -1.34,2.25 0.61,3.29c1.76,0.95 2.52,0.76 4.54,-1.14c2.28,-2.15 2.52,-2.18 4.13,-0.58c1.6,1.6 1.59,1.91 -0.24,5.3c-1.06,1.97 -3.86,5.29 -6.22,7.36c-2.36,2.08 -4.29,4.06 -4.29,4.4c0,0.34 4.31,0.63 9.57,0.63c9.36,0 9.57,-0.06 9.25,-2.25c-0.25,-1.82 -1.05,-2.32 -4.12,-2.57l-3.81,-0.31l3.56,-3.94c5.28,-5.85 4.62,-11.67 -1.57,-13.83c-3.94,-1.37 -4.81,-1.35 -7.63,0.22m23.14,-0.37c-4.08,1.69 -6.39,5.91 -6.39,11.66c0,4.48 0.47,5.88 2.88,8.57c3.81,4.27 8.93,4.46 12.9,0.49c2.4,-2.4 2.72,-3.48 2.72,-9.17c0,-5.57 -0.34,-6.8 -2.5,-8.92c-2.9,-2.86 -6.6,-3.87 -9.61,-2.63m20.72,0.4c-3.42,1.95 -5.03,5.43 -5.07,10.95c-0.05,6.32 2.08,10.25 6.3,11.64c6.15,2.03 11.1,-1.68 12.32,-9.23c0.67,-4.1 -0.99,-9.8 -3.51,-12.08c-2.52,-2.28 -7.23,-2.88 -10.04,-1.28m20.89,7.15c-7.24,10.74 -7.23,10.5 -0.6,10.5c5.31,0 5.6,0.13 5.6,2.5c0,2.11 0.47,2.5 3,2.5c2.54,0 3,-0.39 3,-2.5c0,-1.38 0.45,-2.5 1,-2.5c0.55,0 1,-1.13 1,-2.5c0,-1.38 -0.45,-2.5 -1,-2.5c-0.56,0 -1,-2.84 -1,-6.5l0,-6.5l-2.97,0c-2.57,0 -3.63,0.98 -8.03,7.5m-40.8,-2.3c-0.66,0.66 -1.2,3.56 -1.2,6.46c0,4.18 0.4,5.48 1.94,6.3c2.91,1.56 5.06,-1.18 5.06,-6.46c0,-5.82 -3.01,-9.09 -5.8,-6.3m22.05,0.05c-2.94,3.67 -2.5,11 0.77,12.75c2.83,1.52 4.98,-1.29 4.98,-6.5c0,-5.78 -3.28,-9.35 -5.75,-6.25m21.75,5.75c-0.85,1.59 -0.76,2 0.47,2c0.87,0 1.53,-0.87 1.53,-2c0,-1.1 -0.2,-2 -0.46,-2c-0.26,0 -0.95,0.9 -1.54,2" fill="#905233" fill-rule="evenodd" id="path3"/>
  </g>
 </g>
</svg>